<?xml version="1.0" encoding="UTF-8" standalone="no"?>
<!DOCTYPE svg PUBLIC "-//W3C//DTD SVG 1.1//EN"
 "http://www.w3.org/Graphics/SVG/1.1/DTD/svg11.dtd">
<!-- Generated by graphviz version 2.46.0 (0)
 -->
<!-- Title: Theos Pages: 1 -->
<svg width="637pt" height="260pt"
 viewBox="0.00 0.00 636.75 260.00" xmlns="http://www.w3.org/2000/svg" xmlns:xlink="http://www.w3.org/1999/xlink">
<g id="graph0" class="graph" transform="scale(1 1) rotate(0) translate(4 256)">
<title>Theos</title>
<polygon fill="white" stroke="transparent" points="-4,4 -4,-256 632.75,-256 632.75,4 -4,4"/>
<!-- clang -->
<g id="node1" class="node">
<title>clang</title>
<ellipse fill="none" stroke="black" cx="35.75" cy="-90" rx="36" ry="18"/>
<text text-anchor="middle" x="35.75" y="-86.3" font-family="Times,serif" font-size="14.00">clang</text>
</g>
<!-- theos&#45;cctools&#45;aarch64&#45;git -->
<g id="node7" class="node">
<title>theos&#45;cctools&#45;aarch64&#45;git</title>
<ellipse fill="none" stroke="black" cx="258.75" cy="-162" rx="127.28" ry="18"/>
<text text-anchor="middle" x="258.75" y="-158.3" font-family="Times,serif" font-size="14.00">theos&#45;cctools&#45;aarch64&#45;git</text>
</g>
<!-- clang&#45;&gt;theos&#45;cctools&#45;aarch64&#45;git -->
<g id="edge1" class="edge">
<title>clang&#45;&gt;theos&#45;cctools&#45;aarch64&#45;git</title>
<path fill="none" stroke="black" d="M63.08,-101.95C68.57,-104.04 74.32,-106.15 79.75,-108 117.02,-120.7 159.24,-133.28 193.31,-143"/>
<polygon fill="black" stroke="black" points="192.57,-146.43 203.15,-145.79 194.48,-139.69 192.57,-146.43"/>
</g>
<!-- llvm -->
<g id="node2" class="node">
<title>llvm</title>
<ellipse fill="none" stroke="black" cx="119.75" cy="-90" rx="30.59" ry="18"/>
<text text-anchor="middle" x="119.75" y="-86.3" font-family="Times,serif" font-size="14.00">llvm</text>
</g>
<!-- llvm&#45;&gt;theos&#45;cctools&#45;aarch64&#45;git -->
<g id="edge2" class="edge">
<title>llvm&#45;&gt;theos&#45;cctools&#45;aarch64&#45;git</title>
<path fill="none" stroke="black" d="M142.39,-102.4C162.51,-112.54 192.45,-127.61 216.91,-139.93"/>
<polygon fill="black" stroke="black" points="215.48,-143.13 225.99,-144.5 218.63,-136.88 215.48,-143.13"/>
</g>
<!-- tapi&#45;git -->
<g id="node3" class="node">
<title>tapi&#45;git</title>
<ellipse fill="none" stroke="black" cx="212.75" cy="-90" rx="44.39" ry="18"/>
<text text-anchor="middle" x="212.75" y="-86.3" font-family="Times,serif" font-size="14.00">tapi&#45;git</text>
</g>
<!-- tapi&#45;git&#45;&gt;theos&#45;cctools&#45;aarch64&#45;git -->
<g id="edge3" class="edge">
<title>tapi&#45;git&#45;&gt;theos&#45;cctools&#45;aarch64&#45;git</title>
<path fill="none" stroke="black" d="M223.65,-107.59C229.12,-115.92 235.88,-126.2 242,-135.51"/>
<polygon fill="black" stroke="black" points="239.19,-137.61 247.6,-144.04 245.04,-133.76 239.19,-137.61"/>
</g>
<!-- uuid -->
<g id="node4" class="node">
<title>uuid</title>
<ellipse fill="none" stroke="black" cx="305.75" cy="-90" rx="31.4" ry="18"/>
<text text-anchor="middle" x="305.75" y="-86.3" font-family="Times,serif" font-size="14.00">uuid</text>
</g>
<!-- uuid&#45;&gt;theos&#45;cctools&#45;aarch64&#45;git -->
<g id="edge4" class="edge">
<title>uuid&#45;&gt;theos&#45;cctools&#45;aarch64&#45;git</title>
<path fill="none" stroke="black" d="M294.85,-107.24C289.2,-115.65 282.17,-126.11 275.82,-135.56"/>
<polygon fill="black" stroke="black" points="272.91,-133.62 270.24,-143.88 278.72,-137.52 272.91,-133.62"/>
</g>
<!-- xar&#45;tpoechtrage&#45;git -->
<g id="node5" class="node">
<title>xar&#45;tpoechtrage&#45;git</title>
<ellipse fill="none" stroke="black" cx="455.75" cy="-90" rx="100.98" ry="18"/>
<text text-anchor="middle" x="455.75" y="-86.3" font-family="Times,serif" font-size="14.00">xar&#45;tpoechtrage&#45;git</text>
</g>
<!-- xar&#45;tpoechtrage&#45;git&#45;&gt;theos&#45;cctools&#45;aarch64&#45;git -->
<g id="edge5" class="edge">
<title>xar&#45;tpoechtrage&#45;git&#45;&gt;theos&#45;cctools&#45;aarch64&#45;git</title>
<path fill="none" stroke="black" d="M412.51,-106.36C383.26,-116.76 344.39,-130.57 313.05,-141.7"/>
<polygon fill="black" stroke="black" points="311.84,-138.42 303.59,-145.07 314.18,-145.02 311.84,-138.42"/>
</g>
<!-- ... -->
<g id="node6" class="node">
<title>...</title>
<ellipse fill="none" stroke="black" cx="601.75" cy="-90" rx="27" ry="18"/>
<text text-anchor="middle" x="601.75" y="-86.3" font-family="Times,serif" font-size="14.00">...</text>
</g>
<!-- ...&#45;&gt;theos&#45;cctools&#45;aarch64&#45;git -->
<g id="edge6" class="edge">
<title>...&#45;&gt;theos&#45;cctools&#45;aarch64&#45;git</title>
<path fill="none" stroke="black" d="M581.19,-101.87C576.24,-104.16 570.89,-106.38 565.75,-108 501.76,-128.22 427.68,-141.29 368.33,-149.39"/>
<polygon fill="black" stroke="black" points="367.63,-145.95 358.18,-150.75 368.56,-152.89 367.63,-145.95"/>
</g>
<!-- theos&#45;git -->
<g id="node8" class="node">
<title>theos&#45;git</title>
<ellipse fill="none" stroke="black" cx="168.75" cy="-234" rx="51.99" ry="18"/>
<text text-anchor="middle" x="168.75" y="-230.3" font-family="Times,serif" font-size="14.00">theos&#45;git</text>
</g>
<!-- theos&#45;cctools&#45;aarch64&#45;git&#45;&gt;theos&#45;git -->
<g id="edge7" class="edge">
<title>theos&#45;cctools&#45;aarch64&#45;git&#45;&gt;theos&#45;git</title>
<path fill="none" stroke="black" d="M236.96,-179.95C225.01,-189.24 210.06,-200.87 197.19,-210.87"/>
<polygon fill="black" stroke="black" points="194.84,-208.27 189.1,-217.17 199.14,-213.79 194.84,-208.27"/>
</g>
<!-- ldid2 -->
<g id="node9" class="node">
<title>ldid2</title>
<ellipse fill="none" stroke="black" cx="78.75" cy="-162" rx="34.39" ry="18"/>
<text text-anchor="middle" x="78.75" y="-158.3" font-family="Times,serif" font-size="14.00">ldid2</text>
</g>
<!-- ldid2&#45;&gt;theos&#45;git -->
<g id="edge8" class="edge">
<title>ldid2&#45;&gt;theos&#45;git</title>
<path fill="none" stroke="black" d="M97.39,-177.5C109.88,-187.21 126.53,-200.17 140.62,-211.12"/>
<polygon fill="black" stroke="black" points="138.52,-213.92 148.56,-217.3 142.81,-208.4 138.52,-213.92"/>
</g>
<!-- llvm&#45;libs -->
<g id="node10" class="node">
<title>llvm&#45;libs</title>
<ellipse fill="none" stroke="black" cx="77.75" cy="-18" rx="50.09" ry="18"/>
<text text-anchor="middle" x="77.75" y="-14.3" font-family="Times,serif" font-size="14.00">llvm&#45;libs</text>
</g>
<!-- llvm&#45;libs&#45;&gt;clang -->
<g id="edge9" class="edge">
<title>llvm&#45;libs&#45;&gt;clang</title>
<path fill="none" stroke="black" d="M67.58,-35.95C62.63,-44.2 56.57,-54.3 51.07,-63.46"/>
<polygon fill="black" stroke="black" points="47.96,-61.84 45.82,-72.21 53.97,-65.44 47.96,-61.84"/>
</g>
<!-- llvm&#45;libs&#45;&gt;llvm -->
<g id="edge10" class="edge">
<title>llvm&#45;libs&#45;&gt;llvm</title>
<path fill="none" stroke="black" d="M87.91,-35.95C92.94,-44.32 99.1,-54.6 104.67,-63.87"/>
<polygon fill="black" stroke="black" points="101.82,-65.92 109.96,-72.69 107.82,-62.32 101.82,-65.92"/>
</g>
</g>
</svg>
