<?xml version="1.0" encoding="UTF-8" standalone="no"?>
<!DOCTYPE svg PUBLIC "-//W3C//DTD SVG 1.1//EN"
 "http://www.w3.org/Graphics/SVG/1.1/DTD/svg11.dtd">
<!-- Generated by graphviz version 2.46.0 (0)
 -->
<!-- Title: Theos Pages: 1 -->
<svg width="548pt" height="176pt"
 viewBox="0.00 0.00 548.00 176.00" xmlns="http://www.w3.org/2000/svg" xmlns:xlink="http://www.w3.org/1999/xlink">
<g id="graph0" class="graph" transform="scale(1 1) rotate(0) translate(4 172)">
<title>Theos</title>
<polygon fill="white" stroke="transparent" points="-4,4 -4,-172 544,-172 544,4 -4,4"/>
<!-- llvm -->
<g id="node1" class="node">
<title>llvm</title>
<g id="a_node1"><a xlink:href="https://archlinux.org/packages/extra/x86_64/llvm/" xlink:title="&lt;u&gt;llvm&lt;/u&gt;">
<text text-anchor="start" x="0" y="-55.8" font-family="Times,serif" text-decoration="underline" font-size="14.00" fill="Gray">llvm</text>
</a>
</g>
</g>
<!-- toolchain -->
<g id="node6" class="node">
<title>toolchain</title>
<g id="a_node6"><a xlink:href="https://aur.archlinux.org/packages/theos-cctools-aarch64-git/" xlink:title="&lt;u&gt;theos&#45;cctools&#45;aarch64&#45;git&lt;/u&gt;">
<text text-anchor="start" x="125.5" y="-106.8" font-family="Times,serif" text-decoration="underline" font-size="14.00" fill="Green">theos&#45;cctools&#45;aarch64&#45;git</text>
</a>
</g>
</g>
<!-- llvm&#45;&gt;toolchain -->
<g id="edge1" class="edge">
<title>llvm&#45;&gt;toolchain</title>
<path fill="none" stroke="black" d="M31.23,-63.83C33.99,-64.57 36.82,-65.31 39.5,-66 88.52,-78.55 145.48,-92.13 181.02,-100.47"/>
<polygon fill="black" stroke="black" points="180.95,-102.65 187.4,-101.97 181.93,-98.48 180.95,-102.65"/>
</g>
<!-- clang -->
<g id="node2" class="node">
<title>clang</title>
<g id="a_node2"><a xlink:href="https://archlinux.org/packages/extra/x86_64/clang/" xlink:title="&lt;u&gt;clang&lt;/u&gt;">
<text text-anchor="start" x="49" y="-55.8" font-family="Times,serif" text-decoration="underline" font-size="14.00" fill="Gray">clang</text>
</a>
</g>
</g>
<!-- clang&#45;&gt;toolchain -->
<g id="edge2" class="edge">
<title>clang&#45;&gt;toolchain</title>
<path fill="none" stroke="black" d="M88.02,-66.01C114.27,-74.76 160.99,-90.33 189.99,-100"/>
<polygon fill="black" stroke="black" points="189.42,-102.06 195.9,-101.97 190.77,-98 189.42,-102.06"/>
</g>
<!-- libbsd -->
<g id="node3" class="node">
<title>libbsd</title>
<g id="a_node3"><a xlink:href="https://archlinux.org/packages/extra/x86_64/libbsd/" xlink:title="&lt;u&gt;libbsd&lt;/u&gt;">
<text text-anchor="start" x="106.5" y="-55.8" font-family="Times,serif" text-decoration="underline" font-size="14.00" fill="Gray">libbsd</text>
</a>
</g>
</g>
<!-- libbsd&#45;&gt;toolchain -->
<g id="edge3" class="edge">
<title>libbsd&#45;&gt;toolchain</title>
<path fill="none" stroke="black" d="M140.23,-66.11C155.23,-74.56 181.32,-89.25 198.5,-98.92"/>
<polygon fill="black" stroke="black" points="197.57,-100.86 203.95,-102 199.67,-97.13 197.57,-100.86"/>
</g>
<!-- llvm&#45;libs -->
<g id="node4" class="node">
<title>llvm&#45;libs</title>
<g id="a_node4"><a xlink:href="https://archlinux.org/packages/extra/x86_64/llvm-libs/" xlink:title="&lt;u&gt;llvm&#45;libs&lt;/u&gt;">
<text text-anchor="start" x="11" y="-4.8" font-family="Times,serif" text-decoration="underline" font-size="14.00" fill="Gray">llvm&#45;libs</text>
</a>
</g>
</g>
<!-- llvm&#45;libs&#45;&gt;llvm -->
<g id="edge10" class="edge">
<title>llvm&#45;libs&#45;&gt;llvm</title>
<path fill="none" stroke="black" d="M37.88,-15.31C33.81,-22.99 27.1,-35.64 22.09,-45.08"/>
<polygon fill="black" stroke="black" points="20.06,-44.33 19.08,-50.74 23.85,-46.34 20.06,-44.33"/>
</g>
<!-- llvm&#45;libs&#45;&gt;clang -->
<g id="edge11" class="edge">
<title>llvm&#45;libs&#45;&gt;clang</title>
<path fill="none" stroke="black" d="M45.25,-15.31C49.53,-23.07 56.59,-35.88 61.81,-45.35"/>
<polygon fill="black" stroke="black" points="59.95,-46.42 64.78,-50.74 63.7,-44.35 59.95,-46.42"/>
</g>
<!-- util&#45;linux&#45;libs -->
<g id="node5" class="node">
<title>util&#45;linux&#45;libs</title>
<g id="a_node5"><a xlink:href="https://archlinux.org/packages/core/x86_64/util-linux-libs/" xlink:title="&lt;u&gt;util&#45;linux&#45;libs&lt;/u&gt;">
<text text-anchor="start" x="168.5" y="-55.8" font-family="Times,serif" text-decoration="underline" font-size="14.00" fill="Gray">util&#45;linux&#45;libs</text>
</a>
</g>
</g>
<!-- util&#45;linux&#45;libs&#45;&gt;toolchain -->
<g id="edge4" class="edge">
<title>util&#45;linux&#45;libs&#45;&gt;toolchain</title>
<path fill="none" stroke="black" d="M215.5,-66.31C215.5,-73.85 215.5,-86.16 215.5,-95.54"/>
<polygon fill="black" stroke="black" points="213.36,-95.62 215.5,-101.74 217.64,-95.62 213.36,-95.62"/>
</g>
<!-- theos -->
<g id="node10" class="node">
<title>theos</title>
<g id="a_node10"><a xlink:href="https://aur.archlinux.org/packages/theos-git/" xlink:title="&lt;u&gt;theos&#45;git&lt;/u&gt;">
<text text-anchor="start" x="119.5" y="-157.8" font-family="Times,serif" text-decoration="underline" font-size="14.00" fill="Blue">theos&#45;git</text>
</a>
</g>
</g>
<!-- toolchain&#45;&gt;theos -->
<g id="edge8" class="edge">
<title>toolchain&#45;&gt;theos</title>
<path fill="none" stroke="black" d="M206.87,-117.11C196.12,-125.34 177.64,-139.49 165.01,-149.16"/>
<polygon fill="black" stroke="black" points="163.55,-147.58 159.99,-153 166.16,-150.98 163.55,-147.58"/>
</g>
<!-- uuid -->
<g id="node7" class="node">
<title>uuid</title>
<g id="a_node7"><a xlink:href="https://aur.archlinux.org/packages/uuid/" xlink:title="&lt;u&gt;uuid&lt;/u&gt;">
<text text-anchor="start" x="280.5" y="-55.8" font-family="Times,serif" text-decoration="underline" font-size="14.00" fill="Blue">uuid</text>
</a>
</g>
</g>
<!-- uuid&#45;&gt;toolchain -->
<g id="edge5" class="edge">
<title>uuid&#45;&gt;toolchain</title>
<path fill="none" stroke="black" d="M285.58,-66.11C271.73,-74.48 247.75,-88.99 231.75,-98.67"/>
<polygon fill="black" stroke="black" points="230.38,-97 226.25,-102 232.6,-100.66 230.38,-97"/>
</g>
<!-- ldid -->
<g id="node8" class="node">
<title>ldid</title>
<g id="a_node8"><a xlink:href="https://aur.archlinux.org/packages/ldid2/" xlink:title="&lt;u&gt;ldid2&lt;/u&gt;">
<text text-anchor="start" x="70" y="-106.8" font-family="Times,serif" text-decoration="underline" font-size="14.00" fill="Blue">ldid2</text>
</a>
</g>
</g>
<!-- ldid&#45;&gt;theos -->
<g id="edge9" class="edge">
<title>ldid&#45;&gt;theos</title>
<path fill="none" stroke="black" d="M97,-117.11C107.58,-125.34 125.77,-139.49 138.2,-149.16"/>
<polygon fill="black" stroke="black" points="136.99,-150.93 143.14,-153 139.62,-147.55 136.99,-150.93"/>
</g>
<!-- tapi -->
<g id="node9" class="node">
<title>tapi</title>
<g id="a_node9"><a xlink:href="https://aur.archlinux.org/packages/tapi-git/" xlink:title="&lt;u&gt;tapi&#45;git&lt;/u&gt;">
<text text-anchor="start" x="330.5" y="-55.8" font-family="Times,serif" text-decoration="underline" font-size="14.00" fill="Blue">tapi&#45;git</text>
</a>
</g>
</g>
<!-- tapi&#45;&gt;toolchain -->
<g id="edge6" class="edge">
<title>tapi&#45;&gt;toolchain</title>
<path fill="none" stroke="black" d="M337.78,-66.01C312.7,-74.72 268.16,-90.2 240.32,-99.88"/>
<polygon fill="black" stroke="black" points="239.38,-97.93 234.3,-101.97 240.79,-101.98 239.38,-97.93"/>
</g>
<!-- xar -->
<g id="node11" class="node">
<title>xar</title>
<g id="a_node11"><a xlink:href="https://aur.archlinux.org/packages/xar-tpoechtrage-git/" xlink:title="&lt;u&gt;xar&#45;tpoechtrage&#45;git&lt;/u&gt;">
<text text-anchor="start" x="401" y="-55.8" font-family="Times,serif" text-decoration="underline" font-size="14.00" fill="Blue">xar&#45;tpoechtrage&#45;git</text>
</a>
</g>
</g>
<!-- xar&#45;&gt;toolchain -->
<g id="edge7" class="edge">
<title>xar&#45;&gt;toolchain</title>
<path fill="none" stroke="black" d="M436.64,-66.01C389.87,-74.99 305.63,-91.18 255.71,-100.77"/>
<polygon fill="black" stroke="black" points="255.11,-98.71 249.5,-101.97 255.92,-102.91 255.11,-98.71"/>
</g>
</g>
</svg>
