<?xml version="1.0" encoding="UTF-8" standalone="no"?>
<!DOCTYPE svg PUBLIC "-//W3C//DTD SVG 1.1//EN"
 "http://www.w3.org/Graphics/SVG/1.1/DTD/svg11.dtd">
<!-- Generated by graphviz version 2.46.0 (0)
 -->
<!-- Title: Theos Pages: 1 -->
<svg width="566pt" height="260pt"
 viewBox="0.00 0.00 566.19 260.00" xmlns="http://www.w3.org/2000/svg" xmlns:xlink="http://www.w3.org/1999/xlink">
<g id="graph0" class="graph" transform="scale(1 1) rotate(0) translate(4 256)">
<title>Theos</title>
<polygon fill="white" stroke="transparent" points="-4,4 -4,-256 562.19,-256 562.19,4 -4,4"/>
<!-- clang -->
<g id="node1" class="node">
<title>clang</title>
<ellipse fill="none" stroke="black" cx="37.45" cy="-90" rx="36" ry="18"/>
<text text-anchor="middle" x="37.45" y="-86.3" font-family="Times,serif" font-size="14.00">clang</text>
</g>
<!-- theos&#45;cctools&#45;aarch64&#45;git -->
<g id="node6" class="node">
<title>theos&#45;cctools&#45;aarch64&#45;git</title>
<ellipse fill="none" stroke="black" cx="214.45" cy="-162" rx="127.28" ry="18"/>
<text text-anchor="middle" x="214.45" y="-158.3" font-family="Times,serif" font-size="14.00">theos&#45;cctools&#45;aarch64&#45;git</text>
</g>
<!-- clang&#45;&gt;theos&#45;cctools&#45;aarch64&#45;git -->
<g id="edge1" class="edge">
<title>clang&#45;&gt;theos&#45;cctools&#45;aarch64&#45;git</title>
<path fill="none" stroke="black" d="M64.72,-101.78C91.19,-112.26 132.01,-128.4 164.35,-141.19"/>
<polygon fill="black" stroke="black" points="163.07,-144.44 173.66,-144.87 165.64,-137.94 163.07,-144.44"/>
</g>
<!-- llvm -->
<g id="node2" class="node">
<title>llvm</title>
<ellipse fill="none" stroke="black" cx="121.45" cy="-90" rx="30.59" ry="18"/>
<text text-anchor="middle" x="121.45" y="-86.3" font-family="Times,serif" font-size="14.00">llvm</text>
</g>
<!-- llvm&#45;&gt;theos&#45;cctools&#45;aarch64&#45;git -->
<g id="edge2" class="edge">
<title>llvm&#45;&gt;theos&#45;cctools&#45;aarch64&#45;git</title>
<path fill="none" stroke="black" d="M139.82,-104.83C152.39,-114.29 169.35,-127.05 183.92,-138.02"/>
<polygon fill="black" stroke="black" points="182.08,-141.02 192.17,-144.24 186.29,-135.43 182.08,-141.02"/>
</g>
<!-- tapi&#45;git -->
<g id="node3" class="node">
<title>tapi&#45;git</title>
<ellipse fill="none" stroke="black" cx="214.45" cy="-90" rx="44.39" ry="18"/>
<text text-anchor="middle" x="214.45" y="-86.3" font-family="Times,serif" font-size="14.00">tapi&#45;git</text>
</g>
<!-- tapi&#45;git&#45;&gt;theos&#45;cctools&#45;aarch64&#45;git -->
<g id="edge3" class="edge">
<title>tapi&#45;git&#45;&gt;theos&#45;cctools&#45;aarch64&#45;git</title>
<path fill="none" stroke="black" d="M214.45,-108.3C214.45,-116.02 214.45,-125.29 214.45,-133.89"/>
<polygon fill="black" stroke="black" points="210.95,-133.9 214.45,-143.9 217.95,-133.9 210.95,-133.9"/>
</g>
<!-- uuid -->
<g id="node4" class="node">
<title>uuid</title>
<ellipse fill="none" stroke="black" cx="307.45" cy="-90" rx="31.4" ry="18"/>
<text text-anchor="middle" x="307.45" y="-86.3" font-family="Times,serif" font-size="14.00">uuid</text>
</g>
<!-- uuid&#45;&gt;theos&#45;cctools&#45;aarch64&#45;git -->
<g id="edge4" class="edge">
<title>uuid&#45;&gt;theos&#45;cctools&#45;aarch64&#45;git</title>
<path fill="none" stroke="black" d="M289.07,-104.83C276.51,-114.29 259.55,-127.05 244.97,-138.02"/>
<polygon fill="black" stroke="black" points="242.6,-135.43 236.72,-144.24 246.81,-141.02 242.6,-135.43"/>
</g>
<!-- xar&#45;tpoechtrage&#45;git -->
<g id="node5" class="node">
<title>xar&#45;tpoechtrage&#45;git</title>
<ellipse fill="none" stroke="black" cx="457.45" cy="-90" rx="100.98" ry="18"/>
<text text-anchor="middle" x="457.45" y="-86.3" font-family="Times,serif" font-size="14.00">xar&#45;tpoechtrage&#45;git</text>
</g>
<!-- xar&#45;tpoechtrage&#45;git&#45;&gt;theos&#45;cctools&#45;aarch64&#45;git -->
<g id="edge5" class="edge">
<title>xar&#45;tpoechtrage&#45;git&#45;&gt;theos&#45;cctools&#45;aarch64&#45;git</title>
<path fill="none" stroke="black" d="M406.8,-105.59C369.28,-116.4 317.9,-131.2 277.68,-142.78"/>
<polygon fill="black" stroke="black" points="276.61,-139.45 267.97,-145.58 278.55,-146.18 276.61,-139.45"/>
</g>
<!-- theos&#45;git -->
<g id="node7" class="node">
<title>theos&#45;git</title>
<ellipse fill="none" stroke="black" cx="124.45" cy="-234" rx="51.99" ry="18"/>
<text text-anchor="middle" x="124.45" y="-230.3" font-family="Times,serif" font-size="14.00">theos&#45;git</text>
</g>
<!-- theos&#45;cctools&#45;aarch64&#45;git&#45;&gt;theos&#45;git -->
<g id="edge6" class="edge">
<title>theos&#45;cctools&#45;aarch64&#45;git&#45;&gt;theos&#45;git</title>
<path fill="none" stroke="black" d="M192.66,-179.95C180.71,-189.24 165.76,-200.87 152.89,-210.87"/>
<polygon fill="black" stroke="black" points="150.54,-208.27 144.8,-217.17 154.84,-213.79 150.54,-208.27"/>
</g>
<!-- ldid2 -->
<g id="node8" class="node">
<title>ldid2</title>
<ellipse fill="none" stroke="black" cx="34.45" cy="-162" rx="34.39" ry="18"/>
<text text-anchor="middle" x="34.45" y="-158.3" font-family="Times,serif" font-size="14.00">ldid2</text>
</g>
<!-- ldid2&#45;&gt;theos&#45;git -->
<g id="edge7" class="edge">
<title>ldid2&#45;&gt;theos&#45;git</title>
<path fill="none" stroke="black" d="M53.1,-177.5C65.58,-187.21 82.23,-200.17 96.32,-211.12"/>
<polygon fill="black" stroke="black" points="94.22,-213.92 104.26,-217.3 98.51,-208.4 94.22,-213.92"/>
</g>
<!-- llvm&#45;libs -->
<g id="node9" class="node">
<title>llvm&#45;libs</title>
<ellipse fill="none" stroke="black" cx="79.45" cy="-18" rx="50.09" ry="18"/>
<text text-anchor="middle" x="79.45" y="-14.3" font-family="Times,serif" font-size="14.00">llvm&#45;libs</text>
</g>
<!-- llvm&#45;libs&#45;&gt;clang -->
<g id="edge8" class="edge">
<title>llvm&#45;libs&#45;&gt;clang</title>
<path fill="none" stroke="black" d="M69.28,-35.95C64.33,-44.2 58.27,-54.3 52.77,-63.46"/>
<polygon fill="black" stroke="black" points="49.66,-61.84 47.52,-72.21 55.67,-65.44 49.66,-61.84"/>
</g>
<!-- llvm&#45;libs&#45;&gt;llvm -->
<g id="edge9" class="edge">
<title>llvm&#45;libs&#45;&gt;llvm</title>
<path fill="none" stroke="black" d="M89.61,-35.95C94.64,-44.32 100.8,-54.6 106.37,-63.87"/>
<polygon fill="black" stroke="black" points="103.52,-65.92 111.66,-72.69 109.52,-62.32 103.52,-65.92"/>
</g>
</g>
</svg>
